Coordinates
version=1
nRows=41
nColumns=38
inDegrees=no

Units are S.I. units (second, meters, Newtons, ...)
If the header above contains a line with 'inDegrees', this indicates whether rotational values are in degrees (yes) or radians (no).

endheader
time	pelvis_tilt	pelvis_list	pelvis_rotation	pelvis_tx	pelvis_ty	pelvis_tz	hip_flexion_r	hip_adduction_r	hip_rotation_r	knee_angle_r	ankle_angle_r	subtalar_angle_r	mtp_angle_r	hip_flexion_l	hip_adduction_l	hip_rotation_l	knee_angle_l	ankle_angle_l	subtalar_angle_l	mtp_angle_l	lumbar_extension	lumbar_bending	lumbar_rotation	arm_flex_r	arm_add_r	arm_rot_r	elbow_flex_r	pro_sup_r	wrist_flex_r	wrist_dev_r	arm_flex_l	arm_add_l	arm_rot_l	elbow_flex_l	pro_sup_l	wrist_flex_l	wrist_dev_l
144.97	-2.85746	1.26864	0.911864	0.802958	-0.524044	0.990864	0.507514	0.258021	0.00271832	0.245339	-0.299374	0	0	0.246052	-0.395449	-0.439739	1.02833	-0.145914	0	0	0.155229	0.254291	-0.25175	-0.606853	-0.0421376	0.0760247	0.498802	1.03747	0	0	0.327248	-0.0954681	1.05229	0.182766	1.5708	0	0
144.98	-2.85624	1.27085	0.913095	0.802826	-0.529108	0.992143	0.496993	0.25481	0.00328787	0.239385	-0.297034	0	0	0.255915	-0.399785	-0.448458	1.01014	-0.143134	0	0	0.1561	0.255131	-0.2454	-0.584631	-0.0635427	0.172726	0.492877	1.07292	0	0	0.344861	-0.0863448	1.11668	0.175242	1.5708	0	0
144.99	-2.85801	1.27088	0.918884	0.802868	-0.533913	0.993179	0.489169	0.251453	0.00337488	0.232751	-0.295262	0	0	0.268078	-0.399773	-0.436558	0.986522	-0.140531	0	0	0.159933	0.256501	-0.240453	-0.568892	-0.0813332	0.240949	0.499235	1.121	0	0	0.361629	-0.0769518	1.18973	0.168912	1.5708	0	0
145	-2.86077	1.27121	0.925315	0.80306	-0.538524	0.994247	0.481086	0.247886	0.00433096	0.225623	-0.292838	0	0	0.27994	-0.398359	-0.425195	0.960477	-0.13877	0	0	0.163172	0.257459	-0.234126	-0.556159	-0.0961176	0.286872	0.51138	1.18419	0	0	0.379032	-0.0664786	1.27041	0.162243	1.5708	0	0
145.01	-2.86833	1.27124	0.93646	0.803456	-0.542946	0.99522	0.474556	0.243105	0.0043244	0.218897	-0.290307	0	0	0.292526	-0.395163	-0.413047	0.932885	-0.136742	0	0	0.167082	0.257412	-0.226803	-0.545925	-0.108509	0.313106	0.526389	1.25792	0	0	0.395875	-0.0563936	1.34626	0.158978	1.5708	0	0
145.02	-2.87732	1.27182	0.948745	0.803895	-0.547332	0.99627	0.467847	0.237671	0.00444092	0.212359	-0.28799	0	0	0.304319	-0.390879	-0.402434	0.904043	-0.133875	0	0	0.169971	0.256575	-0.217762	-0.538506	-0.117844	0.320658	0.542252	1.34512	0	0	0.412652	-0.0455246	1.42462	0.156728	1.5708	0	0
145.03	-2.88766	1.27163	0.962641	0.804318	-0.55172	0.997344	0.461969	0.232388	0.00478257	0.205564	-0.286235	0	0	0.316363	-0.386008	-0.392011	0.873344	-0.131791	0	0	0.173587	0.255478	-0.208582	-0.532963	-0.125389	0.315707	0.55823	1.42885	0	0	0.428489	-0.0348521	1.50165	0.156537	1.5708	0	0
145.04	-2.89838	1.27195	0.977503	0.804864	-0.556011	0.998452	0.456039	0.226347	0.00385248	0.198863	-0.28486	0	0	0.327552	-0.379867	-0.381449	0.841277	-0.130111	0	0	0.176707	0.25382	-0.199538	-0.528107	-0.131627	0.304354	0.572806	1.49385	0	0	0.443841	-0.0246777	1.5708	0.158588	1.5708	0	0
145.05	-2.90833	1.27227	0.992297	0.805518	-0.560204	0.999519	0.450261	0.220109	0.00164767	0.192072	-0.28451	0	0	0.338028	-0.373246	-0.371601	0.807963	-0.128471	0	0	0.180185	0.251385	-0.192744	-0.521598	-0.141044	0.302268	0.587003	1.51985	0	0	0.454857	-0.0195814	1.5708	0.170464	1.5708	0	0
145.06	-2.9146	1.27334	1.00308	0.806201	-0.564211	1.00064	0.443446	0.214768	0.00176986	0.185733	-0.284165	0	0	0.346978	-0.367664	-0.363964	0.775918	-0.127412	0	0	0.181936	0.249235	-0.184864	-0.51484	-0.149612	0.294466	0.599513	1.54113	0	0	0.465884	-0.0137776	1.5708	0.180716	1.5708	0	0
145.07	-2.91951	1.27468	1.0121	0.806986	-0.568036	1.00171	0.436287	0.209835	0.0027977	0.179273	-0.283759	0	0	0.354896	-0.361986	-0.356703	0.743355	-0.126617	0	0	0.182992	0.247176	-0.175243	-0.509238	-0.157958	0.282279	0.612122	1.56153	0	0	0.477177	-0.00823195	1.5708	0.192326	1.5708	0	0
145.08	-2.92366	1.27628	1.01969	0.807861	-0.571824	1.0027	0.429542	0.205029	0.00369847	0.174503	-0.283031	0	0	0.361827	-0.356527	-0.351503	0.711075	-0.125968	0	0	0.183876	0.244467	-0.165941	-0.503702	-0.166717	0.268645	0.623606	1.5708	0	0	0.487591	-0.00341241	1.5708	0.204094	1.5708	0	0
145.09	-2.93029	1.27774	1.02932	0.808737	-0.575389	1.00361	0.423559	0.199735	0.00435769	0.169752	-0.282167	0	0	0.368709	-0.350261	-0.347185	0.678211	-0.125574	0	0	0.184875	0.241582	-0.156121	-0.498063	-0.175887	0.254419	0.634746	1.5708	0	0	0.497838	0.00104928	1.5708	0.215788	1.5708	0	0
145.1	-2.93945	1.27823	1.04196	0.809773	-0.578785	1.00436	0.419237	0.193969	0.00276282	0.165249	-0.281381	0	0	0.376767	-0.343039	-0.34104	0.645431	-0.12587	0	0	0.187265	0.238373	-0.147436	-0.492199	-0.186136	0.241669	0.645562	1.5708	0	0	0.507464	0.00516336	1.5708	0.22672	1.5708	0	0
145.11	-2.9513	1.27618	1.05677	0.81081	-0.581971	1.00491	0.417889	0.189004	0.00400033	0.160907	-0.280897	0	0	0.387599	-0.336333	-0.33283	0.613839	-0.127415	0	0	0.192475	0.235725	-0.13925	-0.486477	-0.197197	0.228586	0.656392	1.5681	0	0	0.515788	0.00895672	1.5708	0.236881	1.5708	0	0
145.12	-2.95562	1.27535	1.0635	0.811817	-0.585388	1.00554	0.413364	0.185605	0.00742414	0.155191	-0.280768	0	0	0.395717	-0.3319	-0.327579	0.58386	-0.130453	0	0	0.195656	0.234716	-0.130946	-0.481928	-0.20942	0.213844	0.669592	1.5598	0	0	0.523565	0.0136111	1.5708	0.245459	1.5708	0	0
145.13	-2.96316	1.25977	1.08009	0.813447	-0.587687	1.00437	0.425871	0.185763	0.00992396	0.150506	-0.280645	0	0	0.441899	-0.344924	-0.225885	0.551985	-0.142182	0	0	0.21564	0.238527	-0.1298	-0.483542	-0.221818	0.191175	0.690492	1.5507	0	0	0.530495	0.0186014	1.5708	0.255127	1.5708	0	0
145.14	-2.96263	1.27106	1.07903	0.814029	-0.592521	1.00646	0.406749	0.178779	0.00242825	0.143793	-0.28127	0	0	0.414563	-0.321999	-0.30577	0.527498	-0.143952	0	0	0.20732	0.233364	-0.120625	-0.477882	-0.231686	0.168368	0.701334	1.5477	0	0	0.534862	0.0229265	1.5708	0.258597	1.5708	0	0
145.15	-2.9669	1.26076	1.08943	0.815464	-0.594782	1.00564	0.414508	0.178256	0.00230514	0.141482	-0.280955	0	0	0.453101	-0.336888	-0.216498	0.505263	-0.15491	0	0	0.220146	0.235306	-0.117587	-0.476181	-0.242067	0.142333	0.718568	1.55388	0	0	0.54165	0.0270123	1.5708	0.265513	1.5708	0	0
145.16	-2.9642	1.27487	1.08381	0.816116	-0.599392	1.00773	0.393154	0.171164	-0.00163961	0.136155	-0.280786	0	0	0.42157	-0.31379	-0.296778	0.481648	-0.158538	0	0	0.20712	0.230006	-0.106336	-0.46872	-0.251702	0.118187	0.729106	1.5673	0	0	0.546567	0.031274	1.5708	0.266871	1.5708	0	0
145.17	-2.96017	1.28146	1.07777	0.816992	-0.60271	1.00877	0.381067	0.16786	0.00126647	0.132356	-0.280361	0	0	0.417664	-0.311146	-0.302422	0.462084	-0.165631	0	0	0.199774	0.227757	-0.0959825	-0.461933	-0.261476	0.0935643	0.743538	1.5708	0	0	0.552875	0.0349563	1.5708	0.268766	1.5708	0	0
145.18	-2.95722	1.28529	1.07402	0.817947	-0.606003	1.00958	0.372228	0.165067	0.00343399	0.129171	-0.280032	0	0	0.416836	-0.30798	-0.301373	0.445673	-0.17369	0	0	0.196608	0.225937	-0.0887552	-0.456011	-0.271385	0.0689323	0.759302	1.5708	0	0	0.557653	0.0387704	1.5708	0.269245	1.5708	0	0
145.19	-2.95289	1.2889	1.06915	0.818865	-0.609354	1.0103	0.363796	0.16262	0.00412275	0.127065	-0.279553	0	0	0.415642	-0.305242	-0.300043	0.433153	-0.183635	0	0	0.194285	0.224212	-0.082743	-0.45045	-0.280336	0.0441518	0.77431	1.5708	0	0	0.561192	0.0421686	1.5708	0.268534	1.5708	0	0
145.2	-2.94691	1.29263	1.06255	0.8198	-0.612904	1.01103	0.354537	0.160391	0.00246106	0.122395	-0.285602	0	0	0.414141	-0.303086	-0.299552	0.425818	-0.196377	0	0	0.192481	0.222928	-0.0776091	-0.445547	-0.288997	0.0187823	0.789764	1.5708	0	0	0.563222	0.0453363	1.5708	0.266637	1.5708	0	0
145.21	-2.93618	1.29851	1.04957	0.82068	-0.616775	1.01188	0.342542	0.158661	-0.000665558	0.119795	-0.286775	0	0	0.408406	-0.301969	-0.303767	0.422415	-0.207271	0	0	0.188383	0.222242	-0.0715026	-0.440371	-0.29921	-0.00161049	0.804948	1.5708	0	0	0.564861	0.049129	1.5708	0.264152	1.5708	0	0
145.22	-2.92834	1.30201	1.0402	0.82166	-0.620284	1.01248	0.333926	0.157117	-0.0020518	0.118029	-0.286416	0	0	0.405955	-0.300429	-0.303907	0.422911	-0.218685	0	0	0.186807	0.221674	-0.066407	-0.434925	-0.308511	-0.0216601	0.819499	1.5708	0	0	0.566173	0.0528029	1.5708	0.260692	1.5708	0	0
145.23	-2.92017	1.3047	1.03061	0.822672	-0.623741	1.01293	0.326469	0.155896	-0.00329369	0.117447	-0.285188	0	0	0.403753	-0.299103	-0.304111	0.426324	-0.22727	0	0	0.186224	0.221611	-0.0621042	-0.42982	-0.316714	-0.0422037	0.833795	1.5708	0	0	0.566904	0.0564783	1.5708	0.256374	1.5708	0	0
145.24	-2.91046	1.30822	1.01929	0.823669	-0.627309	1.01343	0.317914	0.154425	-0.00484634	0.116887	-0.283587	0	0	0.399789	-0.29803	-0.306471	0.432792	-0.229863	0	0	0.184782	0.221497	-0.0581598	-0.424072	-0.325826	-0.0573113	0.845981	1.5708	0	0	0.567314	0.0593518	1.5708	0.252812	1.5708	0	0
145.25	-2.898	1.31179	1.00513	0.824668	-0.630936	1.01391	0.308637	0.153479	-0.00616986	0.115643	-0.281978	0	0	0.39304	-0.29705	-0.308181	0.437522	-0.228278	0	0	0.182964	0.22176	-0.0546316	-0.418363	-0.335388	-0.0705426	0.858929	1.5708	0	0	0.567526	0.0613845	1.5708	0.250392	1.5708	0	0
145.26	-2.88171	1.3154	0.986975	0.825661	-0.634637	1.0144	0.298839	0.153424	-0.00801558	0.11464	-0.280585	0	0	0.383875	-0.296769	-0.310901	0.439943	-0.22576	0	0	0.180557	0.222812	-0.0511489	-0.412465	-0.345218	-0.0810847	0.870589	1.5708	0	0	0.567622	0.0630136	1.5708	0.24862	1.5708	0	0
145.27	-2.86554	1.31793	0.968629	0.826633	-0.63842	1.01478	0.290294	0.153906	-0.00973172	0.114206	-0.279073	0	0	0.374275	-0.297052	-0.314919	0.439646	-0.224238	0	0	0.179751	0.224533	-0.0480312	-0.406569	-0.355672	-0.0875428	0.879796	1.5708	0	0	0.566847	0.0642434	1.5708	0.247439	1.5708	0	0
145.28	-2.85051	1.31926	0.951235	0.827644	-0.642162	1.01498	0.283144	0.154824	-0.0100577	0.113918	-0.276897	0	0	0.364583	-0.297518	-0.319359	0.436147	-0.223863	0	0	0.180562	0.227004	-0.0451722	-0.401241	-0.366139	-0.0928429	0.888835	1.5708	0	0	0.565483	0.0658065	1.5708	0.245382	1.5708	0	0
145.29	-2.83875	1.31989	0.937089	0.828638	-0.64569	1.01505	0.277504	0.155589	-0.00792634	0.114088	-0.274352	0	0	0.355503	-0.297594	-0.323981	0.430808	-0.224026	0	0	0.182267	0.228882	-0.0421037	-0.39544	-0.376277	-0.0957812	0.896491	1.5708	0	0	0.564015	0.0672517	1.5708	0.242845	1.5708	0	0
145.3	-2.83054	1.31975	0.927177	0.829625	-0.648913	1.01504	0.273605	0.156074	-0.00335028	0.114855	-0.271555	0	0	0.34824	-0.297216	-0.327193	0.425287	-0.224094	0	0	0.184993	0.229763	-0.0399331	-0.387831	-0.385708	-0.0951897	0.90096	1.5708	0	0	0.562439	0.0677011	1.5708	0.240929	1.5708	0	0
145.31	-2.82207	1.31943	0.917865	0.830636	-0.652206	1.01501	0.269401	0.15659	0.00162759	0.114886	-0.268824	0	0	0.341064	-0.297222	-0.330901	0.419841	-0.223185	0	0	0.188433	0.23034	-0.0393053	-0.378923	-0.394577	-0.092148	0.902987	1.5708	0	0	0.560146	0.0671686	1.5708	0.239988	1.5708	0	0
145.32	-2.81206	1.31964	0.9081	0.83171	-0.655606	1.01511	0.26381	0.156818	0.00753563	0.113462	-0.266088	0	0	0.333592	-0.297393	-0.335478	0.414703	-0.221845	0	0	0.191595	0.230491	-0.0401285	-0.369011	-0.40282	-0.0865497	0.90261	1.5708	0	0	0.557401	0.0665109	1.5708	0.238362	1.5708	0	0
145.33	-2.80622	1.31971	0.903384	0.832928	-0.658919	1.01521	0.259188	0.155911	0.0122873	0.111984	-0.263587	0	0	0.327658	-0.296519	-0.339643	0.410006	-0.22126	0	0	0.195222	0.230043	-0.0412231	-0.359635	-0.410333	-0.0801729	0.901855	1.5708	0	0	0.554519	0.0663484	1.5708	0.23581	1.5708	0	0
145.34	-2.8021	1.31942	0.902256	0.8342	-0.66211	1.01533	0.254977	0.154475	0.0188801	0.110124	-0.261197	0	0	0.323369	-0.29499	-0.341526	0.40566	-0.221101	0	0	0.19969	0.228778	-0.0446514	-0.34925	-0.416956	-0.0712139	0.899591	1.5708	0	0	0.551625	0.0652449	1.5708	0.233934	1.5708	0	0
145.35	-2.80839	1.3166	0.912962	0.835639	-0.664878	1.01524	0.255505	0.152148	0.0238782	0.10855	-0.259403	0	0	0.324591	-0.291848	-0.338092	0.402276	-0.221317	0	0	0.207932	0.226154	-0.0502984	-0.33754	-0.422238	-0.0604389	0.895509	1.5708	0	0	0.548618	0.0633719	1.5708	0.232285	1.5708	0	0
145.36	-2.83501	1.30775	0.94797	0.837424	-0.666716	1.0146	0.266628	0.148046	0.0273454	0.108412	-0.258261	0	0	0.338356	-0.284916	-0.319984	0.400497	-0.222366	0	0	0.224684	0.220655	-0.0604907	-0.323576	-0.425273	-0.0471702	0.887539	1.5708	0	0	0.545423	0.0604468	1.5708	0.230644	1.5708	0	0
145.37	-2.84879	1.30101	0.969182	0.839003	-0.669229	1.01422	0.272423	0.145274	0.0284074	0.106973	-0.25683	0	0	0.345402	-0.280123	-0.309618	0.396242	-0.223677	0	0	0.238543	0.216508	-0.0692971	-0.310867	-0.429473	-0.0301259	0.878618	1.5708	0	0	0.540665	0.0571182	1.5708	0.229679	1.5708	0	0
